<svg width="270" height="93" viewBox="0 0 270 93" fill="none" xmlns="http://www.w3.org/2000/svg">
<path d="M184 46.5L105 93L105 -3.4532e-06L184 46.5Z" fill="#5EEAD4"/>
<path d="M22.4375 30.4062L9.46875 69H0.375L17.375 23.5H23.1875L22.4375 30.4062ZM33.2812 69L20.25 30.4062L19.4688 23.5H25.3125L42.4062 69H33.2812ZM32.6875 52.0938V58.875H8.28125V52.0938H32.6875ZM83.6562 23.5V69H75.0312L55.6875 37.4375V69H47.0938V23.5H55.6875L75.0938 55.0938V23.5H83.6562ZM101.562 23.5V69H92.9688V23.5H101.562ZM143.219 62.25V69H111.281V62.25H143.219ZM142.625 28.5312L114.812 69H108.906V63.8438L136.844 23.5H142.625V28.5312ZM139.562 23.5V30.2812H109V23.5H139.562ZM185.625 45.0938V47.4375C185.625 50.875 185.167 53.9688 184.25 56.7188C183.333 59.4479 182.031 61.7708 180.344 63.6875C178.656 65.6042 176.646 67.0729 174.312 68.0938C171.979 69.1146 169.385 69.625 166.531 69.625C163.719 69.625 161.135 69.1146 158.781 68.0938C156.448 67.0729 154.427 65.6042 152.719 63.6875C151.01 61.7708 149.688 59.4479 148.75 56.7188C147.812 53.9688 147.344 50.875 147.344 47.4375V45.0938C147.344 41.6354 147.812 38.5417 148.75 35.8125C149.688 33.0833 151 30.7604 152.688 28.8438C154.375 26.9062 156.385 25.4271 158.719 24.4062C161.073 23.3854 163.656 22.875 166.469 22.875C169.323 22.875 171.917 23.3854 174.25 24.4062C176.583 25.4271 178.594 26.9062 180.281 28.8438C181.99 30.7604 183.302 33.0833 184.219 35.8125C185.156 38.5417 185.625 41.6354 185.625 45.0938ZM176.938 47.4375V45.0312C176.938 42.5521 176.708 40.375 176.25 38.5C175.792 36.6042 175.115 35.0104 174.219 33.7188C173.323 32.4271 172.219 31.4583 170.906 30.8125C169.594 30.1458 168.115 29.8125 166.469 29.8125C164.802 29.8125 163.323 30.1458 162.031 30.8125C160.76 31.4583 159.677 32.4271 158.781 33.7188C157.885 35.0104 157.198 36.6042 156.719 38.5C156.26 40.375 156.031 42.5521 156.031 45.0312V47.4375C156.031 49.8958 156.26 52.0729 156.719 53.9688C157.198 55.8646 157.885 57.4688 158.781 58.7812C159.698 60.0729 160.802 61.0521 162.094 61.7188C163.385 62.3854 164.865 62.7188 166.531 62.7188C168.198 62.7188 169.677 62.3854 170.969 61.7188C172.26 61.0521 173.344 60.0729 174.219 58.7812C175.115 57.4688 175.792 55.8646 176.25 53.9688C176.708 52.0729 176.938 49.8958 176.938 47.4375ZM229.469 23.5V69H220.844L201.5 37.4375V69H192.906V23.5H201.5L220.906 55.0938V23.5H229.469ZM268.375 62.25V69H244.188V62.25H268.375ZM246.812 23.5V69H238.219V23.5H246.812ZM265.219 42.2812V48.875H244.188V42.2812H265.219ZM268.281 23.5V30.2812H244.188V23.5H268.281Z" fill="white"/>
</svg>
