<svg width="290" height="93" viewBox="0 0 290 93" fill="none" xmlns="http://www.w3.org/2000/svg">
<path d="M194 46.5L115 93L115 -3.4532e-06L194 46.5Z" fill="#00D1FF"/>
<path d="M22.5625 31.2812L10.1875 69H0.21875L17.125 23.5H23.4688L22.5625 31.2812ZM32.8438 69L20.4375 31.2812L19.4375 23.5H25.8438L42.8438 69H32.8438ZM32.2812 52.0625V59.4062H8.25V52.0625H32.2812ZM87.2938 23.5V69H77.9188L59.6375 38.5V69H50.2625V23.5H59.6375L77.95 54.0312V23.5H87.2938ZM108.619 23.5V69H99.275V23.5H108.619ZM153.506 61.6875V69H121.256V61.6875H153.506ZM153.037 28.7188L125.412 69H118.819V63.625L146.662 23.5H153.037V28.7188ZM149.819 23.5V30.8438H118.85V23.5H149.819ZM199.238 45.1875V47.3438C199.238 50.8021 198.769 53.9062 197.831 56.6562C196.894 59.4062 195.571 61.75 193.863 63.6875C192.154 65.6042 190.113 67.0729 187.738 68.0938C185.383 69.1146 182.769 69.625 179.894 69.625C177.04 69.625 174.425 69.1146 172.05 68.0938C169.696 67.0729 167.654 65.6042 165.925 63.6875C164.196 61.75 162.852 59.4062 161.894 56.6562C160.956 53.9062 160.488 50.8021 160.488 47.3438V45.1875C160.488 41.7083 160.956 38.6042 161.894 35.875C162.831 33.125 164.154 30.7812 165.863 28.8438C167.592 26.9062 169.633 25.4271 171.988 24.4062C174.363 23.3854 176.977 22.875 179.831 22.875C182.706 22.875 185.321 23.3854 187.675 24.4062C190.05 25.4271 192.092 26.9062 193.8 28.8438C195.529 30.7812 196.863 33.125 197.8 35.875C198.758 38.6042 199.238 41.7083 199.238 45.1875ZM189.769 47.3438V45.125C189.769 42.7083 189.55 40.5833 189.113 38.75C188.675 36.9167 188.029 35.375 187.175 34.125C186.321 32.875 185.279 31.9375 184.05 31.3125C182.821 30.6667 181.415 30.3438 179.831 30.3438C178.248 30.3438 176.842 30.6667 175.613 31.3125C174.404 31.9375 173.373 32.875 172.519 34.125C171.685 35.375 171.05 36.9167 170.613 38.75C170.175 40.5833 169.956 42.7083 169.956 45.125V47.3438C169.956 49.7396 170.175 51.8646 170.613 53.7188C171.05 55.5521 171.696 57.1042 172.55 58.375C173.404 59.625 174.446 60.5729 175.675 61.2188C176.904 61.8646 178.31 62.1875 179.894 62.1875C181.477 62.1875 182.883 61.8646 184.113 61.2188C185.342 60.5729 186.373 59.625 187.206 58.375C188.04 57.1042 188.675 55.5521 189.113 53.7188C189.55 51.8646 189.769 49.7396 189.769 47.3438ZM246.219 23.5V69H236.844L218.562 38.5V69H209.188V23.5H218.562L236.875 54.0312V23.5H246.219ZM288.106 61.6875V69H263.887V61.6875H288.106ZM266.95 23.5V69H257.575V23.5H266.95ZM284.95 42.0312V49.1562H263.887V42.0312H284.95ZM288.075 23.5V30.8438H263.887V23.5H288.075Z" fill="white"/>
</svg>
